Coordinates
version=1
nRows=13
nColumns=40
inDegrees=yes

Units are S.I. units (second, meters, Newtons, ...)
Angles are in degrees.

endheader
time	pelvis_tilt	pelvis_list	pelvis_rotation	pelvis_tx	pelvis_ty	pelvis_tz	hip_flexion_r	hip_adduction_r	hip_rotation_r	knee_angle_r	knee_angle_r_beta	ankle_angle_r	subtalar_angle_r	mtp_angle_r	hip_flexion_l	hip_adduction_l	hip_rotation_l	knee_angle_l	knee_angle_l_beta	ankle_angle_l	subtalar_angle_l	mtp_angle_l	lumbar_extension	lumbar_bending	lumbar_rotation	arm_flex_r	arm_add_r	arm_rot_r	elbow_flex_r	pro_sup_r	wrist_flex_r	wrist_dev_r	arm_flex_l	arm_add_l	arm_rot_l	elbow_flex_l	pro_sup_l	wrist_flex_l	wrist_dev_l
      1.39000000	     -1.05327154	     -1.81372983	      1.69350040	     -0.58521783	      0.89315990	     -1.40105450	      2.25767912	      3.76470930	    -12.76341927	    -20.11596001	     -0.35108973	     12.94281159	      0.57337884	     -3.73222277	     30.62948327	      6.69649923	      8.43868810	    -52.60857128	     -0.91819278	      8.62949652	     18.72238361	     21.47773056	     -4.70900268	      1.91646275	     -0.33368118	      2.27579132	    -10.72929718	    -11.35695847	     43.55874159	     89.95437384	      0.00000000	      0.00000000	     -7.57686064	      8.65102614	     16.84891738	     29.98329701	     89.95437384	      0.00000000	      0.00000000
      1.40000000	     -1.14332182	     -1.79817343	      1.53002730	     -0.57594538	      0.89222251	     -1.40081874	      1.62965048	      3.77354770	    -12.63016406	    -20.03121055	     -0.34961058	     13.28834581	      0.71247757	     -3.81414161	     31.13441208	      6.67503462	      8.95538118	    -50.14962113	     -0.87527601	      8.74900285	     18.72284616	     21.35316393	     -4.67190919	      1.84598374	     -0.02665815	      2.42173950	    -10.91602808	    -11.09400789	     44.49698384	     89.95437384	      0.00000000	      0.00000000	     -7.76570175	      8.44247597	     16.85407218	     28.90848069	     89.95437384	      0.00000000	      0.00000000
      1.41000000	     -1.23655092	     -1.74055464	      1.34060296	     -0.56673600	      0.89125562	     -1.40063589	      0.99928152	      3.73078337	    -12.45196859	    -19.93335731	     -0.34790272	     13.63582323	      0.88960727	     -3.91592747	     31.55965236	      6.61311136	      9.47050167	    -47.60496325	     -0.83086335	      8.65204285	     18.62800811	     21.20449242	     -4.65616684	      1.72419281	      0.27145566	      2.59310022	    -11.08338224	    -10.84412572	     45.38558229	     89.95437384	      0.00000000	      0.00000000	     -7.93255113	      8.22678587	     17.01245636	     27.86360543	     89.95437384	      0.00000000	      0.00000000
      1.42000000	     -1.51896508	     -1.92975207	      1.21866849	     -0.55763597	      0.88987479	     -1.40046483	      0.62991546	      3.93398203	    -12.54263077	    -19.89675196	     -0.34726383	     13.80374038	      0.95605455	     -3.95288971	     32.24180880	      6.73267352	      9.70978182	    -45.04986146	     -0.78626841	      8.51711810	     18.29720143	     21.02487375	     -4.41984945	      1.85476102	      0.46941215	      2.80614033	    -11.24768565	    -10.60182733	     46.12103141	     89.95437384	      0.00000000	      0.00000000	     -8.30783320	      8.04073480	     17.01201088	     27.21091247	     89.95437384	      0.00000000	      0.00000000
      1.43000000	     -1.39138553	     -1.63830128	      1.02770834	     -0.54812661	      0.88936189	     -1.40058898	     -0.27193472	      3.56610880	    -12.46555301	    -19.84114810	     -0.34629336	     14.14718973	      1.37872456	     -4.13661171	     32.09783163	      6.37624983	     10.31394940	    -42.03480478	     -0.73364574	      8.07293020	     18.03681203	     20.58618851	     -4.64630421	      1.47656665	      0.76521627	      2.95368898	    -11.35992237	    -10.40782893	     46.92606768	     89.95437384	      0.00000000	      0.00000000	     -8.25380014	      7.82666173	     17.37531747	     25.89545715	     89.95437384	      0.00000000	      0.00000000
      1.44000000	     -1.76096917	     -1.93274683	      0.96315251	     -0.53908407	      0.88776565	     -1.40066752	     -0.54660262	      3.86700295	    -12.55444814	    -19.81095151	     -0.34576633	     14.31324099	      1.49510195	     -4.19809362	     32.78474833	      6.57954529	     10.52836428	    -39.40617147	     -0.68776744	      7.98873304	     17.38731562	     20.30456210	     -4.32866137	      1.73268668	      0.89246269	      3.14333556	    -11.56020075	    -10.09432456	     47.56471179	     89.95437384	      0.00000000	      0.00000000	     -8.60115610	      7.62229644	     17.32305195	     25.32929164	     89.95437384	      0.00000000	      0.00000000
      1.45000000	     -2.01751104	     -2.02245944	      0.86704970	     -0.53000036	      0.88651224	     -1.40091820	     -0.98764064	      3.92410429	    -12.50956672	    -19.73038562	     -0.34436019	     14.45721400	      1.72018985	     -4.27613283	     33.17665533	      6.53377784	     10.70711894	    -36.63706941	     -0.63943749	      7.56895399	     16.42432374	     19.92124770	     -4.15860101	      1.77469449	      1.07788936	      3.27949959	    -11.78420483	     -9.70399855	     48.24209561	     89.95437384	      0.00000000	      0.00000000	     -8.68222140	      7.43402060	     17.32310985	     24.38186349	     89.95437384	      0.00000000	      0.00000000
      1.46000000	     -1.79326922	     -1.65532970	      0.75736555	     -0.52026297	      0.88600607	     -1.40164286	     -1.84214992	      3.11331342	    -13.75209093	    -20.03710388	     -0.34971344	     14.84359903	      4.33578021	     -6.02926838	     32.75301885	      6.12658025	     11.60369012	    -33.63362223	     -0.58701745	      6.59996079	     15.50483921	     14.69578013	     -4.48562285	      1.33337059	      1.22945970	      3.47685838	    -11.86803927	     -9.48793840	     48.76694844	     89.95437384	      0.00000000	      0.00000000	     -8.61862823	      7.22096340	     17.79500042	     23.27140729	     89.95437384	      0.00000000	      0.00000000
      1.47000000	     -2.19771836	     -1.89470429	      0.64936256	     -0.51103750	      0.88440690	     -1.40190673	     -2.05942853	      3.32323648	    -13.68106677	    -20.05774218	     -0.35007364	     14.84570184	      4.26412271	     -6.04171123	     33.37336218	      6.27855948	     11.82270902	    -31.34400409	     -0.54705607	      6.54086064	     14.48397944	     14.42492833	     -4.13109946	      1.52371551	      1.39125210	      3.59980604	    -12.05674485	     -9.14635094	     49.25428074	     89.95437384	      0.00000000	      0.00000000	     -8.86227866	      7.05686864	     17.69279947	     22.72373759	     89.95437384	      0.00000000	      0.00000000
      1.48000000	     -2.20483057	     -1.77140016	      0.46990778	     -0.50132024	      0.88356644	     -1.40225580	     -2.78099438	      3.13048811	    -13.42074173	    -20.04940874	     -0.34992820	     14.95604899	      4.30810428	     -6.26763589	     33.36302600	      6.31570600	     13.02298912	    -29.09157501	     -0.50774377	      6.11774802	     12.24248600	     13.43701382	     -4.18034450	      1.30107628	      1.61429216	      3.77893896	    -12.09019765	     -8.99530987	     49.58287007	     89.95437384	      0.00000000	      0.00000000	     -8.80558565	      6.93860783	     17.77286555	     21.70357025	     89.95437384	      0.00000000	      0.00000000
      1.49000000	     -2.57386859	     -2.02212328	      0.36993989	     -0.49197418	      0.88206387	     -1.40285974	     -3.00534166	      3.29575959	    -13.39341223	    -20.11666363	     -0.35110201	     14.87004049	      4.38771873	     -6.29428966	     33.94882282	      6.45904150	     13.29118835	    -27.30013136	     -0.47647718	      6.09735241	     11.17340328	     13.08361644	     -3.84149198	      1.51618678	      1.75118888	      3.91943849	    -12.29367291	     -8.64281833	     49.82968777	     89.95437384	      0.00000000	      0.00000000	     -9.01662827	      6.74794658	     17.66195254	     21.27136077	     89.95437384	      0.00000000	      0.00000000
      1.50000000	     -2.92263404	     -2.05016217	      0.24021954	     -0.48233850	      0.88067826	     -1.40348939	     -3.16676084	      3.19578273	    -13.25455055	    -20.42467079	     -0.35647775	     14.78001438	      4.45366267	     -6.33406183	     34.35574675	      6.44822450	     13.82257747	    -25.60443656	     -0.44688172	      5.70458227	      9.46902009	     12.59267380	     -3.48750589	      1.46725585	      1.86638091	      4.05044927	    -12.40395315	     -8.28513507	     49.97282352	     89.95437384	      0.00000000	      0.00000000	     -9.14189226	      6.63267178	     17.53043459	     20.65379309	     89.95437384	      0.00000000	      0.00000000
      1.51000000	     -2.86185292	     -1.93200906	     -0.10844514	     -0.47196584	      0.87988361	     -1.40371010	     -3.79233381	      2.87414410	    -13.14338438	    -20.81405719	     -0.36327383	     14.84668154	      5.14224846	     -6.76284883	     34.31602384	      6.90846710	     16.30461436	    -24.57325461	     -0.42888420	      4.75980608	      5.33318439	     10.65074088	     -3.55835687	      1.21886456	      2.20992758	      4.14093929	    -12.32926642	     -8.24170946	     50.06998334	     89.95437384	      0.00000000	      0.00000000	     -9.25021872	      6.56620049	     17.59110659	     20.15091495	     89.95437384	      0.00000000	      0.00000000
